<svg width="94" height="42" viewBox="0 0 94 42" fill="none" xmlns="http://www.w3.org/2000/svg">
<rect width="94" height="42" fill="#1E1E1E"/>
<path d="M37.4929 16.7827C37.4588 16.4389 37.3125 16.1719 37.054 15.9815C36.7955 15.7912 36.4446 15.696 36.0014 15.696C35.7003 15.696 35.446 15.7386 35.2386 15.8239C35.0313 15.9062 34.8722 16.0213 34.7614 16.169C34.6534 16.3168 34.5994 16.4844 34.5994 16.6719C34.5938 16.8281 34.6264 16.9645 34.6974 17.081C34.7713 17.1974 34.8722 17.2983 35 17.3835C35.1278 17.4659 35.2756 17.5384 35.4432 17.6009C35.6108 17.6605 35.7898 17.7116 35.9801 17.7543L36.7642 17.9418C37.1449 18.027 37.4943 18.1406 37.8125 18.2827C38.1307 18.4247 38.4063 18.5994 38.6392 18.8068C38.8722 19.0142 39.0526 19.2585 39.1804 19.5398C39.3111 19.821 39.3778 20.1435 39.3807 20.5071C39.3778 21.0412 39.2415 21.5043 38.9716 21.8963C38.7045 22.2855 38.3182 22.5881 37.8125 22.804C37.3097 23.017 36.7031 23.1236 35.9929 23.1236C35.2884 23.1236 34.6747 23.0156 34.152 22.7997C33.6321 22.5838 33.2259 22.2642 32.9332 21.8409C32.6435 21.4148 32.4915 20.8878 32.4773 20.2599H34.2628C34.2827 20.5526 34.3665 20.7969 34.5142 20.9929C34.6648 21.1861 34.8651 21.3324 35.1151 21.4318C35.3679 21.5284 35.6534 21.5767 35.9716 21.5767C36.2841 21.5767 36.5554 21.5312 36.7855 21.4403C37.0185 21.3494 37.1989 21.223 37.3267 21.0611C37.4545 20.8991 37.5185 20.7131 37.5185 20.5028C37.5185 20.3068 37.4602 20.142 37.3438 20.0085C37.2301 19.875 37.0625 19.7614 36.8409 19.6676C36.6222 19.5739 36.3537 19.4886 36.0355 19.4119L35.0852 19.1733C34.3494 18.9943 33.7685 18.7145 33.3423 18.3338C32.9162 17.9531 32.7045 17.4403 32.7074 16.7955C32.7045 16.267 32.8452 15.8054 33.1293 15.4105C33.4162 15.0156 33.8097 14.7074 34.3097 14.4858C34.8097 14.2642 35.3778 14.1534 36.0142 14.1534C36.6619 14.1534 37.2273 14.2642 37.7102 14.4858C38.196 14.7074 38.5739 15.0156 38.8438 15.4105C39.1136 15.8054 39.2528 16.2628 39.2614 16.7827H37.4929ZM48.6417 18.6364C48.6417 19.5881 48.4613 20.3977 48.1005 21.0653C47.7425 21.733 47.2539 22.2429 46.6346 22.5952C46.0181 22.9446 45.3249 23.1193 44.555 23.1193C43.7795 23.1193 43.0835 22.9432 42.467 22.5909C41.8505 22.2386 41.3633 21.7287 41.0053 21.0611C40.6474 20.3935 40.4684 19.5852 40.4684 18.6364C40.4684 17.6847 40.6474 16.875 41.0053 16.2074C41.3633 15.5398 41.8505 15.0312 42.467 14.6818C43.0835 14.3295 43.7795 14.1534 44.555 14.1534C45.3249 14.1534 46.0181 14.3295 46.6346 14.6818C47.2539 15.0312 47.7425 15.5398 48.1005 16.2074C48.4613 16.875 48.6417 17.6847 48.6417 18.6364ZM46.771 18.6364C46.771 18.0199 46.6786 17.5 46.494 17.0767C46.3121 16.6534 46.055 16.3324 45.7227 16.1136C45.3903 15.8949 45.0011 15.7855 44.555 15.7855C44.109 15.7855 43.7198 15.8949 43.3874 16.1136C43.055 16.3324 42.7965 16.6534 42.6119 17.0767C42.43 17.5 42.3391 18.0199 42.3391 18.6364C42.3391 19.2528 42.43 19.7727 42.6119 20.196C42.7965 20.6193 43.055 20.9403 43.3874 21.1591C43.7198 21.3778 44.109 21.4872 44.555 21.4872C45.0011 21.4872 45.3903 21.3778 45.7227 21.1591C46.055 20.9403 46.3121 20.6193 46.494 20.196C46.6786 19.7727 46.771 19.2528 46.771 18.6364ZM50.0085 23V14.2727H55.7869V15.794H51.8537V17.8736H55.4034V19.3949H51.8537V23H50.0085ZM56.6957 15.794V14.2727H63.8633V15.794H61.1914V23H59.3675V15.794H56.6957ZM65.9386 23.0682C65.7283 23.0682 65.5479 22.9929 65.3974 22.8423C65.2468 22.6918 65.1715 22.5114 65.1715 22.3011C65.1715 22.0909 65.2468 21.9105 65.3974 21.7599C65.5479 21.6094 65.7283 21.5341 65.9386 21.5341C66.1488 21.5341 66.3292 21.6094 66.4798 21.7599C66.6303 21.9105 66.7056 22.0909 66.7056 22.3011C66.7056 22.4403 66.6701 22.5682 66.5991 22.6847C66.5309 22.8011 66.4386 22.8949 66.3221 22.9659C66.2085 23.0341 66.0806 23.0682 65.9386 23.0682ZM71.2546 23.1364C70.6239 23.1364 70.0799 22.9972 69.6225 22.7188C69.168 22.4375 68.8171 22.0455 68.57 21.5426C68.3256 21.0369 68.2035 20.4489 68.2035 19.7784C68.2035 19.108 68.3256 18.517 68.57 18.0057C68.8171 17.4915 69.1609 17.0909 69.6012 16.804C70.0444 16.5142 70.5614 16.3693 71.1523 16.3693C71.4933 16.3693 71.8299 16.4261 72.1623 16.5398C72.4947 16.6534 72.7972 16.8381 73.07 17.0938C73.3427 17.3466 73.56 17.6818 73.7219 18.0994C73.8839 18.517 73.9648 19.0312 73.9648 19.642V20.0682H68.9194V19.1989H72.9421C72.9421 18.8295 72.8683 18.5 72.7205 18.2102C72.5756 17.9205 72.3683 17.6918 72.0984 17.5241C71.8313 17.3565 71.516 17.2727 71.1523 17.2727C70.7518 17.2727 70.4052 17.3722 70.1126 17.571C69.8228 17.767 69.5998 18.0227 69.4435 18.3381C69.2873 18.6534 69.2092 18.9915 69.2092 19.3523V19.9318C69.2092 20.4261 69.2944 20.8452 69.4648 21.1889C69.6381 21.5298 69.8782 21.7898 70.185 21.9688C70.4918 22.1449 70.8484 22.233 71.2546 22.233C71.5188 22.233 71.7575 22.196 71.9705 22.1222C72.1864 22.0455 72.3725 21.9318 72.5288 21.7812C72.685 21.6278 72.8058 21.4375 72.891 21.2102L73.8626 21.483C73.7603 21.8125 73.5884 22.1023 73.3469 22.3523C73.1055 22.5994 72.8072 22.7926 72.4521 22.9318C72.0969 23.0682 71.6978 23.1364 71.2546 23.1364ZM77.4208 23.1534C77.006 23.1534 76.6296 23.0753 76.2915 22.919C75.9535 22.7599 75.685 22.5312 75.4862 22.233C75.2873 21.9318 75.1879 21.5682 75.1879 21.142C75.1879 20.767 75.2617 20.4631 75.4094 20.2301C75.5572 19.9943 75.7546 19.8097 76.0018 19.6761C76.2489 19.5426 76.5217 19.4432 76.82 19.3778C77.1211 19.3097 77.4237 19.2557 77.7276 19.2159C78.1254 19.1648 78.4478 19.1264 78.695 19.1009C78.945 19.0724 79.1268 19.0256 79.2404 18.9602C79.3569 18.8949 79.4151 18.7812 79.4151 18.6193V18.5852C79.4151 18.1648 79.3001 17.8381 79.07 17.6051C78.8427 17.3722 78.4975 17.2557 78.0344 17.2557C77.5543 17.2557 77.1779 17.3608 76.9052 17.571C76.6325 17.7812 76.4407 18.0057 76.3299 18.2443L75.3754 17.9034C75.5458 17.5057 75.7731 17.196 76.0572 16.9744C76.3441 16.75 76.6566 16.5937 76.9947 16.5057C77.3356 16.4148 77.6708 16.3693 78.0004 16.3693C78.2106 16.3693 78.4521 16.3949 78.7248 16.446C79.0004 16.4943 79.266 16.5952 79.5217 16.7486C79.7802 16.902 79.9947 17.1335 80.1651 17.4432C80.3356 17.7528 80.4208 18.1676 80.4208 18.6875V23H79.4151V22.1136H79.364C79.2958 22.2557 79.1822 22.4077 79.0231 22.5696C78.864 22.7315 78.6523 22.8693 78.3881 22.983C78.1239 23.0966 77.8015 23.1534 77.4208 23.1534ZM77.5742 22.25C77.9719 22.25 78.3072 22.1719 78.5799 22.0156C78.8555 21.8594 79.0629 21.6577 79.2021 21.4105C79.3441 21.1634 79.4151 20.9034 79.4151 20.6307V19.7102C79.3725 19.7614 79.2788 19.8082 79.1339 19.8509C78.9918 19.8906 78.8271 19.9261 78.6396 19.9574C78.4549 19.9858 78.2745 20.0114 78.0984 20.0341C77.9251 20.054 77.7844 20.071 77.6765 20.0852C77.4151 20.1193 77.1708 20.1747 76.9435 20.2514C76.7191 20.3253 76.5373 20.4375 76.3981 20.5881C76.2617 20.7358 76.1935 20.9375 76.1935 21.1932C76.1935 21.5426 76.3228 21.8068 76.5813 21.9858C76.8427 22.1619 77.1737 22.25 77.5742 22.25ZM86.8928 17.9205L85.9893 18.1761C85.9325 18.0256 85.8487 17.8793 85.7379 17.7372C85.63 17.5923 85.4822 17.473 85.2947 17.3793C85.1072 17.2855 84.8672 17.2386 84.5746 17.2386C84.174 17.2386 83.8402 17.331 83.5732 17.5156C83.3089 17.6974 83.1768 17.929 83.1768 18.2102C83.1768 18.4602 83.2678 18.6577 83.4496 18.8026C83.6314 18.9474 83.9155 19.0682 84.3018 19.1648L85.2734 19.4034C85.8587 19.5455 86.2947 19.7628 86.5817 20.0554C86.8686 20.3452 87.0121 20.7187 87.0121 21.1761C87.0121 21.5511 86.9041 21.8864 86.6882 22.1818C86.4751 22.4773 86.1768 22.7102 85.7933 22.8807C85.4098 23.0511 84.9638 23.1364 84.4553 23.1364C83.7876 23.1364 83.2351 22.9915 82.7976 22.7017C82.3601 22.4119 82.0831 21.9886 81.9666 21.4318L82.9212 21.1932C83.0121 21.5455 83.1839 21.8097 83.4368 21.9858C83.6925 22.1619 84.0263 22.25 84.4382 22.25C84.907 22.25 85.2791 22.1506 85.5547 21.9517C85.8331 21.75 85.9723 21.5085 85.9723 21.2273C85.9723 21 85.8928 20.8097 85.7337 20.6562C85.5746 20.5 85.3303 20.3835 85.0007 20.3068L83.9098 20.0511C83.3104 19.9091 82.87 19.6889 82.5888 19.3906C82.3104 19.0895 82.1712 18.7131 82.1712 18.2614C82.1712 17.892 82.2749 17.5653 82.4822 17.2812C82.6925 16.9972 82.978 16.7741 83.3388 16.6122C83.7024 16.4503 84.1143 16.3693 84.5746 16.3693C85.2223 16.3693 85.7308 16.5114 86.1001 16.7955C86.4723 17.0795 86.7365 17.4545 86.8928 17.9205ZM89.1737 25.4545C89.0032 25.4545 88.8512 25.4403 88.7177 25.4119C88.5842 25.3864 88.4918 25.3608 88.4407 25.3352L88.6964 24.4489C88.9407 24.5114 89.1566 24.5341 89.3441 24.517C89.5316 24.5 89.6978 24.4162 89.8427 24.2656C89.9904 24.1179 90.1254 23.8778 90.2475 23.5455L90.435 23.0341L88.0146 16.4545H89.1055L90.9123 21.6705H90.9805L92.7873 16.4545H93.8782L91.0998 23.9545C90.9748 24.2926 90.82 24.5724 90.6353 24.794C90.4506 25.0185 90.2362 25.1847 89.9918 25.2926C89.7504 25.4006 89.4776 25.4545 89.1737 25.4545Z" fill="white"/>
<rect x="13.3378" width="7" height="25" transform="rotate(32.2431 13.3378 0)" fill="#D9D9D9"/>
<path d="M22.5248 9.1065L20.9164 41.7357L4.4619 36.3275L22.5248 9.1065Z" fill="#D9D9D9"/>
<line x1="32" y1="28.5" x2="91" y2="28.5" stroke="white"/>
<line x1="45" y1="35.5" x2="78" y2="35.5" stroke="white"/>
</svg>
